<svg xmlns="http://www.w3.org/2000/svg" viewBox="0 0 900 280" role="img" aria-labelledby="title desc">
  <title id="title">Roatan Island Life</title>
  <desc id="desc">Refined Roatan Island Life logo with circular palm icon, coral sunset, gold script wordmark, and spaced island life text.</desc>
  <defs>
    <linearGradient id="coralSun" x1="136" x2="178" y1="68" y2="110" gradientUnits="userSpaceOnUse">
      <stop offset="0" stop-color="#FFB45F"/>
      <stop offset="1" stop-color="#FF705C"/>
    </linearGradient>
    <clipPath id="circleClip">
      <circle cx="110" cy="110" r="91"/>
    </clipPath>
  </defs>

  <g transform="translate(24 28)">
    <circle cx="110" cy="110" r="93" fill="#FFFFFF" stroke="#0B1D2D" stroke-width="7"/>
    <g clip-path="url(#circleClip)">
      <circle cx="157" cy="91" r="18" fill="url(#coralSun)"/>

      <path
        d="M73 128c28 0 52 1 78 0 11-.4 20-.7 32 .8"
        fill="none"
        stroke="#0B1D2D"
        stroke-linecap="round"
        stroke-width="3.2"
      />
      <path
        d="M92 137c26-2 52-1 77 1"
        fill="none"
        stroke="#4B8CA0"
        stroke-linecap="round"
        stroke-width="2.4"
      />
      <path
        d="M148 148c9 .8 18 .9 27 .2"
        fill="none"
        stroke="#4B8CA0"
        stroke-linecap="round"
        stroke-width="2.4"
      />

      <path
        d="M18 158c35-25 58-30 82-24 13 3 23 10 33 20 9 9 17 14 32 13-25 20-60 18-88 8-25-9-41-18-59-17Z"
        fill="#0B1D2D"
      />
      <path
        d="M72 141c38 5 55 12 72 25 18 14 32 17 52 11"
        fill="none"
        stroke="#0B1D2D"
        stroke-linecap="round"
        stroke-width="5"
      />
      <path
        d="M83 149c29 2 46 9 62 20"
        fill="none"
        stroke="#4B8CA0"
        stroke-linecap="round"
        stroke-width="3"
      />

      <path
        d="M59 155c4-39 15-73 35-102"
        fill="none"
        stroke="#0B1D2D"
        stroke-linecap="round"
        stroke-width="12"
      />
      <path
        d="M64 125c-13-14-31-20-54-19 18 19 37 28 58 30"
        fill="#0B1D2D"
      />

      <path d="M97 55c-15-18-22-35-21-54 21 12 32 29 34 53Z" fill="#0B1D2D"/>
      <path d="M102 58c16-14 37-20 64-17-20 16-41 25-65 25Z" fill="#0B1D2D"/>
      <path d="M92 64c-19 1-38-4-58-15 25-8 46-6 63 8Z" fill="#0B1D2D"/>
      <path d="M88 72c-13 20-31 35-53 44 4-26 19-43 46-52Z" fill="#0B1D2D"/>
      <path d="M101 70c23 8 40 23 51 46-29-3-48-16-59-38Z" fill="#0B1D2D"/>
      <path d="M93 60c6-4 14-3 18 3 4 7 2 15-4 19-6 4-14 2-18-4-4-6-2-14 4-18Z" fill="#FFFFFF" stroke="#0B1D2D" stroke-width="5"/>
    </g>
  </g>

  <g transform="translate(278 74)">
    <text
      x="0"
      y="80"
      fill="#C89D3C"
      font-family="Snell Roundhand, Brush Script MT, Segoe Script, cursive"
      font-size="112"
      font-style="italic"
      letter-spacing="-3"
    >Roatan</text>

    <line x1="12" x2="74" y1="143" y2="143" stroke="#C89D3C" stroke-width="3"/>
    <text
      x="102"
      y="154"
      fill="#0B1D2D"
      font-family="Montserrat, Avenir Next, Arial, sans-serif"
      font-size="29"
      font-weight="600"
      letter-spacing="15"
    >ISLAND LIFE</text>
    <line x1="600" x2="662" y1="143" y2="143" stroke="#C89D3C" stroke-width="3"/>
  </g>
</svg>
